<?xml version="1.0" standalone="no"?>
<!DOCTYPE svg PUBLIC "-//W3C//DTD SVG 20010904//EN"
 "http://www.w3.org/TR/2001/REC-SVG-20010904/DTD/svg10.dtd">
<svg version="1.0" xmlns="http://www.w3.org/2000/svg"
 width="180.000000pt" height="180.000000pt" viewBox="0 0 180.000000 180.000000"
 preserveAspectRatio="xMidYMid meet">
<metadata>
Created by potrace 1.14, written by Peter Selinger 2001-2017
</metadata>
<g transform="translate(0.000000,180.000000) scale(0.100000,-0.100000)"
fill="#000000" stroke="none">
<path d="M0 1780 c0 -39 112 -41 138 -2 l14 22 -76 0 c-69 0 -76 -2 -76 -20z"/>
<path d="M435 1771 c48 -22 81 -29 165 -35 95 -6 107 -9 132 -33 15 -15 28
-36 28 -48 0 -15 10 -25 34 -33 45 -16 70 -45 61 -71 -3 -12 -11 -21 -17 -21
-6 0 -30 -16 -54 -35 -41 -34 -45 -35 -128 -35 -48 0 -94 -4 -104 -9 -9 -5
-78 -15 -152 -21 -121 -10 -337 -42 -382 -56 -15 -5 -18 -18 -18 -90 0 -46 3
-84 8 -84 4 0 22 9 41 21 19 11 95 36 168 55 131 34 139 34 305 32 140 -3 172
-6 178 -18 4 -8 45 -116 90 -240 46 -124 88 -236 95 -249 11 -21 21 0 106 229
l94 252 85 -6 c109 -8 177 10 382 103 189 85 192 86 212 66 18 -18 19 -25 8
-41 -10 -15 -335 -158 -417 -183 -70 -22 -164 -28 -193 -12 -15 8 -26 -13 -81
-157 -35 -92 -81 -213 -103 -270 l-40 -103 -46 3 -45 3 -106 278 -106 277
-127 0 c-106 0 -147 -5 -252 -30 -70 -16 -149 -41 -177 -56 -28 -14 -57 -23
-65 -20 -12 4 -14 -26 -14 -183 l0 -189 63 -7 c194 -20 740 -106 1027 -161
266 -50 678 -134 695 -140 13 -5 15 56 15 509 l0 516 -55 11 -55 11 -51 -40
c-39 -31 -60 -41 -88 -41 -53 0 -132 24 -197 59 -32 17 -73 31 -91 31 -32 0
-42 7 -89 63 l-21 26 -82 -14 c-87 -16 -107 -13 -116 15 -9 28 13 56 66 84 25
14 52 33 59 41 7 8 25 15 39 15 31 0 55 16 64 43 6 16 -17 17 -401 16 l-407 0
60 -28z"/>
<path d="M0 570 c0 -24 5 -42 12 -44 7 -2 126 -23 263 -46 232 -40 462 -90
701 -155 75 -20 737 -234 812 -262 9 -4 12 23 12 114 l0 120 -117 26 c-109 25
-312 66 -653 131 -277 53 -940 156 -1005 156 -23 0 -25 -4 -25 -40z"/>
<path d="M0 189 l0 -189 748 1 747 1 -250 83 c-302 101 -658 190 -975 245
-129 22 -243 42 -252 44 -17 4 -18 -10 -18 -185z"/>
</g>
</svg>
